<?xml version="1.0" encoding="UTF-8"?>
<svg width="200px" height="200px" viewBox="0 0 24 24" stroke-width="1.5" fill="none" xmlns="http://www.w3.org/2000/svg" color="#22c55e">
  <path d="M12 22c5.523 0 10-4.477 10-10S17.523 2 12 2 2 6.477 2 12s4.477 10 10 10z" stroke="#22c55e" stroke-width="1.5" stroke-linecap="round" stroke-linejoin="round"></path>
  <path d="M12 22V16m0 0c-3.314 0-6-2.686-6-6 0-3.314 2.686-6 6-6 3.314 0 6 2.686 6 6 0 3.314-2.686 6-6 6z" stroke="#22c55e" stroke-width="1.5" stroke-linecap="round" stroke-linejoin="round"></path>
  <path d="M12 16c-3.314 0-6-2.686-6-6 0 0 2 1.5 6 1.5s6-1.5 6-1.5c0 3.314-2.686 6-6 6z" stroke="#22c55e" stroke-width="1.5" stroke-linecap="round" stroke-linejoin="round"></path>
  <path d="M12 22v-6" stroke="#22c55e" stroke-width="1.5" stroke-linecap="round" stroke-linejoin="round"></path>
</svg>