<?xml version="1.0" encoding="UTF-8"?>
<svg xmlns="http://www.w3.org/2000/svg" width="192" height="192" viewBox="0 0 24 24" fill="#22c55e">
  <path d="M15.75 3.75c-1.612 0-2.727.869-3.75 2.25-1.023-1.381-2.138-2.25-3.75-2.25-2.16 0-3.96 1.8-3.96 3.96 0 2.16 1.8 3.96 3.96 3.96 1.612 0 2.727-.869 3.75-2.25 1.023 1.381 2.138 2.25 3.75 2.25 2.16 0 3.96-1.8 3.96-3.96 0-2.16-1.8-3.96-3.96-3.96zM12 16.5c-1.547 0-2.94-.69-3.862-1.8-.113-.135-.282-.3-.5-.3-.218 0-.387.165-.5.3-.922 1.11-2.315 1.8-3.862 1.8-2.76 0-5-2.24-5-5 0-2.76 2.24-5 5-5 1.547 0 2.94.69 3.862 1.8.113.135.282.3.5.3.218 0 .387-.165.5-.3.922-1.11 2.315-1.8 3.862-1.8 2.76 0 5 2.24 5 5 0 2.76-2.24 5-5 5zm5-10.5c0-1.38-1.12-2.5-2.5-2.5S12 4.62 12 6s1.12 2.5 2.5 2.5S17 7.38 17 6zm-15 7.5c0 1.38 1.12 2.5 2.5 2.5S7 14.88 7 13.5 5.88 11 4.5 11 2 12.12 2 13.5z"/>
  <path d="M9 14.25a.75.75 0 01.75-.75h4.5a.75.75 0 010 1.5h-4.5a.75.75 0 01-.75-.75z"/>
  <path d="M12 18.75a.75.75 0 01.75.75v1.5a.75.75 0 01-1.5 0v-1.5a.75.75 0 01.75-.75z"/>
  <path d="M10.5 20.25a.75.75 0 01.75-.75h1.5a.75.75 0 010 1.5h-1.5a.75.75 0 01-.75-.75z"/>
</svg>
